<svg width="163" height="32" viewBox="0 0 163 32" fill="none" xmlns="http://www.w3.org/2000/svg">
<path d="M5.10696 25.1274C5.12491 25.1434 5.1392 25.1631 5.14885 25.1852C5.1585 25.2073 5.1633 25.2311 5.1629 25.2552V29.9301C5.16468 29.9579 5.16061 29.9858 5.15097 30.0119C5.14134 30.0381 5.12635 30.0619 5.10696 30.0819C5.08586 30.1026 5.06086 30.1189 5.03343 30.1298C5.006 30.1408 4.97666 30.1462 4.94712 30.1458H4.50762C4.45039 30.1458 4.39551 30.1231 4.35505 30.0826C4.31459 30.0422 4.29186 29.9873 4.29186 29.9301V26.6856L3.02924 29.083C2.99434 29.1561 2.94855 29.2235 2.8934 29.2828C2.86834 29.3072 2.83805 29.3257 2.80483 29.3368C2.77161 29.3478 2.73632 29.3512 2.7016 29.3467H2.46187C2.42715 29.3512 2.39186 29.3478 2.35864 29.3368C2.32542 29.3257 2.29515 29.3072 2.27009 29.2828C2.21494 29.2235 2.16913 29.1561 2.13423 29.083L0.87163 26.6856V29.8821C0.871888 29.9105 0.866333 29.9385 0.855339 29.9646C0.844345 29.9908 0.828131 30.0143 0.807687 30.034C0.788718 30.0552 0.765252 30.072 0.738988 30.083C0.712724 30.0941 0.68432 30.0992 0.655852 30.0979H0.216346C0.186804 30.0983 0.157471 30.0929 0.130039 30.0819C0.102608 30.0709 0.0776121 30.0546 0.0565119 30.034C0.0371142 30.0139 0.0221267 29.9901 0.012493 29.964C0.00285935 29.9378 -0.00118891 29.9099 0.000592085 29.8821V25.2073C0.000196482 25.1832 0.00498703 25.1593 0.0146391 25.1372C0.0242912 25.1152 0.0385602 25.0955 0.0565119 25.0794C0.0740919 25.0613 0.0952269 25.0469 0.118602 25.0373C0.141977 25.0276 0.167099 25.023 0.192373 25.0235H0.687823C0.737415 25.0217 0.786346 25.0353 0.827855 25.0625C0.869364 25.0897 0.901412 25.1291 0.919575 25.1753L2.59773 28.3079L4.29186 25.1753C4.31003 25.1291 4.34207 25.0897 4.38358 25.0625C4.42509 25.0353 4.474 25.0217 4.52359 25.0235H4.99509C5.02009 25.0318 5.04302 25.0453 5.06233 25.0632C5.08163 25.0812 5.09684 25.103 5.10696 25.1274Z" fill="#C9C9CF"/>
<path d="M7.77599 29.6344C7.37282 29.2001 7.14997 28.6287 7.15267 28.0361V27.1971C7.15838 26.6046 7.38329 26.0353 7.78398 25.5988C8.24278 25.2066 8.82655 24.991 9.43017 24.991C10.0338 24.991 10.6176 25.2066 11.0764 25.5988C11.4741 26.0364 11.6961 26.6057 11.6997 27.1971C11.7076 27.3355 11.7076 27.4742 11.6997 27.6126C11.7074 27.7537 11.7074 27.8951 11.6997 28.0361C11.6983 28.6265 11.4792 29.1956 11.0844 29.6344C10.866 29.8451 10.6061 30.0079 10.3213 30.1125C10.0365 30.2171 9.73297 30.2611 9.43017 30.2417C9.12723 30.2626 8.82331 30.2193 8.53826 30.1146C8.25321 30.01 7.99345 29.8463 7.77599 29.6344ZM10.4211 29.115C10.6832 28.7957 10.8221 28.3931 10.8127 27.9802C10.8127 27.9083 10.8127 27.7884 10.8127 27.6046C10.8127 27.4208 10.8127 27.3009 10.8127 27.237C10.8233 26.8215 10.6843 26.4159 10.4211 26.0943C10.1528 25.842 9.79843 25.7015 9.43017 25.7015C9.06191 25.7015 8.70753 25.842 8.43927 26.0943C8.17376 26.4152 8.03201 26.8206 8.03971 27.237V27.9802C8.03322 28.394 8.17494 28.7965 8.43927 29.115C8.70753 29.3672 9.06191 29.5077 9.43017 29.5077C9.79843 29.5077 10.1528 29.3672 10.4211 29.115Z" fill="#C9C9CF"/>
<path d="M14.0812 29.6504C13.6689 29.1999 13.4482 28.6066 13.4658 27.9962V27.1971C13.4531 26.5875 13.6732 25.996 14.0812 25.5429C14.295 25.3432 14.5465 25.1881 14.8209 25.0866C15.0952 24.9851 15.3871 24.9392 15.6794 24.9515C16.0886 24.9393 16.4945 25.0271 16.8621 25.2073C17.1567 25.3412 17.4084 25.5542 17.5893 25.8226C17.7411 26.0421 17.8296 26.2993 17.845 26.5658C17.8483 26.5944 17.8442 26.6235 17.833 26.6501C17.8218 26.6767 17.8039 26.6999 17.7811 26.7176C17.761 26.7401 17.7363 26.7581 17.7088 26.7705C17.6813 26.7829 17.6515 26.7894 17.6213 26.7895H17.1977C17.1705 26.7924 17.143 26.7896 17.1168 26.7813C17.0907 26.7731 17.0666 26.7595 17.0459 26.7416C17.0015 26.6968 16.9686 26.642 16.95 26.5817C16.8646 26.311 16.697 26.0736 16.4705 25.9025C16.2285 25.7615 15.9513 25.6923 15.6714 25.7027C15.491 25.6942 15.3109 25.7239 15.1429 25.7901C14.9748 25.8562 14.8227 25.9571 14.6965 26.0863C14.4315 26.4132 14.2925 26.8244 14.3049 27.245V27.9323C14.2925 28.3529 14.4315 28.7641 14.6965 29.091C14.8227 29.2201 14.9748 29.3211 15.1429 29.3872C15.3109 29.4533 15.491 29.4831 15.6714 29.4745C15.9516 29.4873 16.2293 29.4178 16.4705 29.2748C16.697 29.1036 16.8646 28.8662 16.95 28.5955C16.9686 28.5353 17.0015 28.4805 17.0459 28.4357C17.0666 28.4177 17.0907 28.4042 17.1168 28.396C17.143 28.3877 17.1705 28.3849 17.1977 28.3878H17.6213C17.6515 28.3879 17.6813 28.3944 17.7088 28.4068C17.7363 28.4191 17.761 28.4372 17.7811 28.4597C17.8033 28.4778 17.8208 28.5012 17.8319 28.5276C17.8431 28.5541 17.8476 28.5829 17.845 28.6115C17.8282 28.8753 17.7397 29.1294 17.5893 29.3467C17.4068 29.6156 17.1557 29.8308 16.8621 29.97C16.4945 30.1501 16.0886 30.2379 15.6794 30.2257C15.3882 30.2402 15.097 30.1968 14.8227 30.0981C14.5483 29.9993 14.2963 29.8471 14.0812 29.6504Z" fill="#C9C9CF"/>
<path d="M24.0222 29.986C24.0222 30.0898 23.9583 30.1458 23.8304 30.1458H23.279C23.2263 30.1424 23.1752 30.127 23.1294 30.1007C23.0837 30.0743 23.0446 30.0378 23.0153 29.994L21.5769 27.9482H20.6659V29.8821C20.6671 29.9442 20.6442 30.0043 20.602 30.0499C20.5809 30.0706 20.5559 30.0869 20.5284 30.0978C20.501 30.1088 20.4717 30.1142 20.4421 30.1138H20.0186C19.9592 30.113 19.9023 30.0902 19.8588 30.0499C19.8165 30.0043 19.7936 29.9442 19.7948 29.8821V25.2632C19.7952 25.2013 19.8179 25.1417 19.8588 25.0953C19.9031 25.0572 19.9602 25.0372 20.0186 25.0394H20.4421C20.4724 25.0355 20.5033 25.0386 20.5322 25.0484C20.5611 25.0583 20.5874 25.0747 20.609 25.0963C20.6306 25.1179 20.647 25.1442 20.6569 25.1731C20.6667 25.202 20.6698 25.2328 20.6659 25.2632V27.1411H21.5769L22.9114 25.1832C22.9378 25.1391 22.9753 25.1026 23.0202 25.0774C23.065 25.0521 23.1157 25.0391 23.1671 25.0394H23.6466C23.6978 25.0352 23.7488 25.0494 23.7904 25.0794C23.8086 25.0917 23.8232 25.1084 23.833 25.128C23.8428 25.1476 23.8474 25.1694 23.8464 25.1912C23.8525 25.2094 23.8525 25.229 23.8464 25.2472V25.3111L22.384 27.4687L24.0462 29.8661C24.0466 29.9073 24.0385 29.9481 24.0222 29.986Z" fill="#C9C9CF"/>
<path d="M25.8842 29.6344C25.4893 29.1956 25.2702 28.6265 25.2689 28.0361V27.1971C25.2724 26.6057 25.4944 26.0364 25.8922 25.5988C26.351 25.2066 26.9347 24.991 27.5384 24.991C28.142 24.991 28.7258 25.2066 29.1845 25.5988C29.5852 26.0353 29.8101 26.6046 29.8159 27.1971C29.8238 27.3355 29.8238 27.4742 29.8159 27.6126C29.8237 27.7537 29.8237 27.8951 29.8159 28.0361C29.8186 28.6287 29.5957 29.2001 29.1925 29.6344C28.9751 29.8463 28.7153 30.01 28.4303 30.1146C28.1452 30.2193 27.8413 30.2626 27.5384 30.2417C27.2356 30.2611 26.9321 30.2171 26.6472 30.1125C26.3624 30.0079 26.1025 29.8451 25.8842 29.6344ZM28.5293 29.115C28.7936 28.7965 28.9353 28.394 28.9288 27.9802C28.9288 27.9083 28.9288 27.7884 28.9288 27.6046C28.9288 27.4208 28.9288 27.3009 28.9288 27.237C28.9365 26.8206 28.7948 26.4152 28.5293 26.0943C28.261 25.842 27.9066 25.7015 27.5384 25.7015C27.1701 25.7015 26.8157 25.842 26.5474 26.0943C26.2842 26.4159 26.1452 26.8215 26.1559 27.237V27.9802C26.1464 28.3931 26.2854 28.7957 26.5474 29.115C26.8157 29.3672 27.1701 29.5077 27.5384 29.5077C27.9066 29.5077 28.261 29.3672 28.5293 29.115Z" fill="#C9C9CF"/>
<path d="M31.8535 30.0819C31.8309 30.0605 31.8135 30.0343 31.8024 30.0052C31.7913 29.9762 31.787 29.945 31.7895 29.9141V25.2951C31.788 25.2643 31.7929 25.2334 31.8039 25.2045C31.8149 25.1756 31.8318 25.1494 31.8535 25.1273C31.8749 25.1077 31.9002 25.0926 31.9276 25.083C31.9551 25.0734 31.9843 25.0694 32.0133 25.0714H34.0351C34.5123 25.0417 34.9863 25.1679 35.3856 25.431C35.5374 25.5467 35.6594 25.697 35.7414 25.8693C35.8234 26.0417 35.863 26.2311 35.8571 26.4219C35.8719 26.6505 35.8191 26.8784 35.7052 27.0772C35.5779 27.2483 35.4105 27.3855 35.2177 27.4767C35.4493 27.5755 35.6427 27.7465 35.7691 27.9642C35.8981 28.1908 35.9669 28.4466 35.9689 28.7074C35.9791 28.9115 35.9394 29.115 35.853 29.3002C35.7667 29.4855 35.6364 29.6468 35.4735 29.7702C35.0692 30.0435 34.586 30.1755 34.099 30.1458H32.0133C31.9837 30.1462 31.9544 30.1408 31.927 30.1298C31.8995 30.1188 31.8746 30.1025 31.8535 30.0819ZM33.9631 27.237C34.2466 27.2615 34.5297 27.1851 34.7623 27.0212C34.8552 26.9558 34.9302 26.8681 34.9805 26.7662C35.0307 26.6643 35.0546 26.5514 35.0499 26.4379C35.0499 25.9824 34.6983 25.7586 34.0031 25.7586H32.6526V27.237H33.9631ZM34.0191 29.4505C34.2986 29.4681 34.577 29.4013 34.8182 29.2588C34.9114 29.1994 34.9872 29.1163 35.0378 29.018C35.0883 28.9197 35.1118 28.8098 35.1059 28.6994C35.1149 28.5889 35.0953 28.478 35.0491 28.3773C35.003 28.2765 34.9317 28.1893 34.8422 28.124C34.6003 27.9838 34.3218 27.9198 34.043 27.9402H32.6526V29.4505H34.0191Z" fill="#C9C9CF"/>
<path d="M38.3823 29.6504C37.97 29.1999 37.7493 28.6066 37.767 27.9962V27.1971C37.7543 26.5875 37.9743 25.996 38.3823 25.5429C38.5962 25.3432 38.8476 25.1881 39.122 25.0866C39.3964 24.9851 39.6882 24.9392 39.9806 24.9515C40.3922 24.9403 40.8005 25.028 41.1712 25.2073C41.4623 25.3434 41.7109 25.5561 41.8904 25.8226C42.0423 26.0421 42.1307 26.2993 42.1462 26.5658C42.1495 26.5944 42.1453 26.6235 42.1341 26.6501C42.1229 26.6767 42.105 26.6999 42.0822 26.7176C42.0621 26.7401 42.0375 26.7581 42.01 26.7705C41.9824 26.7829 41.9526 26.7894 41.9224 26.7895H41.4989C41.4716 26.7924 41.4441 26.7896 41.418 26.7813C41.3918 26.7731 41.3677 26.7595 41.347 26.7416C41.3027 26.6968 41.2698 26.642 41.2512 26.5817C41.1658 26.311 40.9982 26.0736 40.7717 25.9025C40.5296 25.7615 40.2525 25.6923 39.9726 25.7027C39.7922 25.6942 39.612 25.7239 39.444 25.7901C39.2759 25.8562 39.1238 25.9571 38.9976 26.0863C38.7326 26.4132 38.5937 26.8244 38.6061 27.245V27.9323C38.609 28.3563 38.7651 28.765 39.0456 29.083C39.1718 29.2121 39.3239 29.3131 39.492 29.3792C39.66 29.4453 39.8401 29.4751 40.0205 29.4666C40.3007 29.4793 40.5784 29.4099 40.8196 29.2668C41.0461 29.0957 41.2137 28.8583 41.2991 28.5875C41.3177 28.5273 41.3506 28.4725 41.395 28.4277C41.4157 28.4097 41.4398 28.3962 41.4659 28.388C41.492 28.3797 41.5196 28.3769 41.5468 28.3798H41.9704C42.0005 28.3799 42.0304 28.3864 42.0579 28.3988C42.0854 28.4112 42.11 28.4292 42.1302 28.4517C42.1524 28.4698 42.1699 28.4932 42.181 28.5196C42.1922 28.5461 42.1967 28.5749 42.1941 28.6035C42.1772 28.8673 42.0888 29.1214 41.9384 29.3387C41.757 29.6055 41.5091 29.8204 41.2192 29.962C40.8485 30.1413 40.4401 30.229 40.0285 30.2177C39.73 30.2398 39.4301 30.2009 39.147 30.1034C38.864 30.0058 38.6038 29.8517 38.3823 29.6504Z" fill="#C9C9CF"/>
<path d="M48.3154 29.986C48.3154 30.0898 48.2594 30.1458 48.1315 30.1458H47.5802C47.5272 30.1437 47.4755 30.1288 47.4296 30.1023C47.3837 30.0759 47.3449 30.0387 47.3165 29.994L45.878 27.9482H44.9511V29.8821C44.9523 29.9442 44.9294 30.0043 44.8871 30.0499C44.866 30.0706 44.841 30.0869 44.8136 30.0978C44.7862 30.1088 44.7568 30.1142 44.7273 30.1138H44.3038C44.2742 30.1142 44.2449 30.1088 44.2174 30.0978C44.19 30.0869 44.165 30.0706 44.1439 30.0499C44.1017 30.0043 44.0788 29.9442 44.08 29.8821V25.2632C44.0803 25.2013 44.1031 25.1417 44.1439 25.0953C44.1654 25.0757 44.1907 25.0607 44.2181 25.051C44.2456 25.0414 44.2747 25.0375 44.3038 25.0394H44.7273C44.7576 25.0355 44.7884 25.0386 44.8174 25.0484C44.8463 25.0583 44.8726 25.0747 44.8942 25.0963C44.9158 25.1179 44.9322 25.1442 44.942 25.1731C44.9519 25.202 44.955 25.2328 44.9511 25.2632V27.1411H45.862L47.1966 25.1832C47.223 25.1391 47.2605 25.1026 47.3053 25.0774C47.3502 25.0521 47.4008 25.0391 47.4523 25.0394H47.9318C47.9829 25.0352 48.0339 25.0494 48.0756 25.0794C48.0937 25.0917 48.1084 25.1084 48.1182 25.128C48.128 25.1476 48.1326 25.1694 48.1315 25.1912C48.1342 25.2098 48.1342 25.2286 48.1315 25.2472C48.1287 25.2684 48.1287 25.2899 48.1315 25.3111L46.6692 27.4687L48.3233 29.8661C48.3321 29.906 48.3293 29.9476 48.3154 29.986Z" fill="#C9C9CF"/>
<path d="M50.1853 29.6344C49.7904 29.1955 49.5713 28.6265 49.57 28.0361V27.197C49.5687 26.6032 49.7945 26.0314 50.2013 25.5988C50.6588 25.2071 51.2413 24.9919 51.8435 24.9919C52.4458 24.9919 53.0282 25.2071 53.4857 25.5988C53.8864 26.0352 54.1113 26.6046 54.117 27.197C54.125 27.3354 54.125 27.4742 54.117 27.6126C54.1248 27.7537 54.1248 27.8951 54.117 28.0361C54.1197 28.6287 53.8968 29.2001 53.4937 29.6344C53.2762 29.8463 53.0165 30.0099 52.7314 30.1146C52.4464 30.2193 52.1424 30.2626 51.8395 30.2417C51.5367 30.2611 51.2332 30.217 50.9484 30.1125C50.6636 30.0079 50.4037 29.8451 50.1853 29.6344ZM52.8304 29.1149C53.0947 28.7965 53.2365 28.394 53.23 27.9802C53.23 27.9083 53.23 27.7884 53.23 27.6046C53.23 27.4208 53.23 27.3009 53.23 27.237C53.2377 26.8206 53.0959 26.4152 52.8304 26.0943C52.5621 25.842 52.2078 25.7015 51.8395 25.7015C51.4713 25.7015 51.1168 25.842 50.8486 26.0943C50.5853 26.4159 50.4464 26.8215 50.457 27.237V27.9802C50.4476 28.3931 50.5865 28.7957 50.8486 29.1149C51.1168 29.3672 51.4713 29.5077 51.8395 29.5077C52.2078 29.5077 52.5621 29.3672 52.8304 29.1149Z" fill="#C9C9CF"/>
<path d="M56.1628 30.0819C56.1403 30.0605 56.1228 30.0343 56.1118 30.0053C56.1007 29.9762 56.0963 29.9451 56.0989 29.9141V25.2952C56.0973 25.2643 56.1022 25.2335 56.1132 25.2046C56.1242 25.1757 56.1411 25.1494 56.1628 25.1274C56.1843 25.1078 56.2095 25.0927 56.237 25.0831C56.2645 25.0735 56.2936 25.0695 56.3226 25.0714H59.2154C59.2445 25.069 59.2738 25.0728 59.3013 25.0824C59.3288 25.092 59.354 25.1074 59.3753 25.1274C59.4139 25.1745 59.4338 25.2343 59.4312 25.2952V25.6068C59.433 25.6347 59.4289 25.6625 59.4193 25.6887C59.4096 25.7148 59.3947 25.7387 59.3753 25.7587C59.3547 25.7801 59.3298 25.797 59.3023 25.808C59.2747 25.819 59.2451 25.824 59.2154 25.8226H56.9779V29.8821C56.9791 29.9443 56.9562 30.0044 56.914 30.05C56.8704 30.0903 56.8135 30.1131 56.7541 30.1139H56.3226C56.2672 30.1237 56.2102 30.1123 56.1628 30.0819Z" fill="#C9C9CF"/>
<path d="M61.309 29.6344C60.9142 29.1955 60.6951 28.6265 60.6937 28.0361V27.197C60.6924 26.6032 60.9183 26.0314 61.325 25.5988C61.7826 25.2071 62.365 24.9919 62.9672 24.9919C63.5695 24.9919 64.1519 25.2071 64.6094 25.5988C65.0162 26.0314 65.2421 26.6032 65.2407 27.197C65.2487 27.3354 65.2487 27.4742 65.2407 27.6126C65.2485 27.7537 65.2485 27.8951 65.2407 28.0361C65.2434 28.6287 65.0206 29.2001 64.6174 29.6344C64.3999 29.8463 64.1402 30.0099 63.8551 30.1146C63.5701 30.2193 63.2662 30.2626 62.9632 30.2417C62.6604 30.2611 62.3569 30.217 62.0721 30.1125C61.7873 30.0079 61.5274 29.8451 61.309 29.6344ZM63.9621 29.1149C64.2242 28.7957 64.3632 28.3931 64.3537 27.9802C64.3537 27.9083 64.3537 27.7884 64.3537 27.6046C64.3537 27.4208 64.3537 27.3009 64.3537 27.237C64.3644 26.8215 64.2254 26.4159 63.9621 26.0943C63.6917 25.8432 63.3363 25.7037 62.9672 25.7037C62.5982 25.7037 62.2428 25.8432 61.9723 26.0943C61.7127 26.418 61.5743 26.8221 61.5808 27.237V27.9802C61.5755 28.3924 61.7139 28.7937 61.9723 29.1149C62.2428 29.366 62.5982 29.5055 62.9672 29.5055C63.3363 29.5055 63.6917 29.366 63.9621 29.1149Z" fill="#C9C9CF"/>
<path d="M70.9386 30.0179C70.6682 29.8996 70.4359 29.7088 70.2673 29.4665C70.1339 29.2818 70.0562 29.0627 70.0436 28.8352C70.0424 28.8087 70.0468 28.7822 70.0564 28.7574C70.066 28.7327 70.0807 28.7102 70.0995 28.6914C70.1428 28.658 70.1966 28.641 70.2513 28.6434H70.6669C70.7207 28.6372 70.7749 28.6515 70.8187 28.6834C70.8596 28.7277 70.8921 28.7792 70.9146 28.8352C70.9423 28.9488 70.9946 29.0548 71.0678 29.146C71.141 29.2371 71.2333 29.311 71.3381 29.3626C71.5904 29.4703 71.863 29.5221 72.1372 29.5145C72.4313 29.5299 72.7234 29.4576 72.9763 29.3067C73.0808 29.2427 73.1663 29.1519 73.2239 29.0437C73.2815 28.9355 73.3092 28.8138 73.304 28.6914C73.304 28.14 72.9843 27.8923 72.353 27.8923H71.8176C71.7897 27.8946 71.7617 27.8907 71.7355 27.8811C71.7093 27.8714 71.6855 27.8561 71.6658 27.8363C71.6451 27.8152 71.6288 27.7902 71.6178 27.7628C71.6068 27.7354 71.6014 27.706 71.6018 27.6765V27.4368C71.6004 27.4071 71.6054 27.3775 71.6165 27.3499C71.6275 27.3223 71.6443 27.2975 71.6658 27.2769C71.6855 27.2571 71.7093 27.2418 71.7355 27.2322C71.7617 27.2225 71.7897 27.2187 71.8176 27.221H72.2971C72.8564 27.221 73.1228 26.9972 73.0962 26.5497C73.0969 26.4388 73.0746 26.329 73.0306 26.2271C72.9865 26.1253 72.9218 26.0338 72.8405 25.9584C72.6121 25.7841 72.328 25.6988 72.0414 25.7186C71.7632 25.6932 71.484 25.7546 71.2422 25.8945C71.0592 26.0442 70.9348 26.2535 70.8906 26.4858C70.8791 26.5415 70.8475 26.591 70.8018 26.6249C70.7561 26.6588 70.6995 26.6747 70.6429 26.6696H70.2353C70.1857 26.6711 70.1372 26.654 70.0995 26.6217C70.0799 26.6048 70.064 26.584 70.053 26.5606C70.042 26.5371 70.036 26.5117 70.0356 26.4858C70.0415 26.22 70.1248 25.9618 70.2753 25.7426C70.4427 25.5045 70.6721 25.3166 70.9386 25.1992C71.2846 25.053 71.6578 24.9822 72.0334 24.9915C72.4127 24.9774 72.7901 25.0512 73.1361 25.2072C73.395 25.3191 73.6147 25.5055 73.7675 25.7426C73.8927 25.9471 73.959 26.1821 73.9592 26.4219C73.9701 26.6423 73.9262 26.8619 73.8314 27.0612C73.7251 27.2455 73.5627 27.3911 73.3679 27.4767C73.6203 27.561 73.8333 27.7343 73.9672 27.9642C74.094 28.2111 74.1571 28.4858 74.151 28.7633C74.1582 28.984 74.1074 29.2027 74.0036 29.3976C73.8998 29.5925 73.7468 29.7568 73.5597 29.8741C73.0995 30.1488 72.5687 30.2822 72.0334 30.2577C71.6554 30.2576 71.2819 30.1758 70.9386 30.0179Z" fill="#C9C9CF"/>
<path d="M75.5973 31.1607C75.5771 31.138 75.5617 31.1114 75.5521 31.0825C75.5425 31.0537 75.5388 31.0232 75.5414 30.9929V29.6024C75.5392 29.544 75.5592 29.4869 75.5973 29.4426C75.6437 29.4017 75.7033 29.379 75.7652 29.3787H75.8051C76.0768 29.3787 76.2846 29.1549 76.4204 28.6994C76.5925 27.9938 76.6651 27.2675 76.6362 26.5418V25.2952C76.6323 25.2648 76.6354 25.234 76.6452 25.2051C76.6551 25.1762 76.6714 25.1499 76.6931 25.1283C76.7147 25.1067 76.741 25.0903 76.7699 25.0804C76.7988 25.0706 76.8296 25.0675 76.86 25.0714H79.9366C79.9669 25.0688 79.9974 25.0725 80.0262 25.0821C80.0551 25.0917 80.0817 25.1071 80.1044 25.1273C80.1257 25.1497 80.1423 25.176 80.1533 25.2048C80.1642 25.2336 80.1694 25.2643 80.1683 25.2952V29.3707H80.5998C80.6307 29.3696 80.6614 29.3748 80.6902 29.3857C80.719 29.3967 80.7453 29.4133 80.7676 29.4346C80.7886 29.4552 80.8045 29.4803 80.8142 29.508C80.8239 29.5357 80.8271 29.5653 80.8236 29.5944V30.9929C80.8262 31.0232 80.8225 31.0537 80.8129 31.0825C80.8033 31.1114 80.7879 31.138 80.7676 31.1607C80.7198 31.1981 80.6605 31.2179 80.5998 31.2166H80.1683C80.14 31.2169 80.1119 31.2114 80.0858 31.2004C80.0597 31.1894 80.0361 31.1731 80.0165 31.1527C79.9958 31.1316 79.9795 31.1066 79.9685 31.0792C79.9576 31.0517 79.9521 31.0224 79.9526 30.9929V30.1458H76.3805V30.9929C76.383 31.0227 76.3786 31.0526 76.3675 31.0804C76.3564 31.1081 76.3389 31.1329 76.3166 31.1527C76.2955 31.1734 76.2705 31.1897 76.243 31.2007C76.2156 31.2116 76.1863 31.2171 76.1567 31.2166H75.8051C75.7314 31.224 75.6574 31.2041 75.5973 31.1607ZM79.2973 29.3707V25.8226H77.4992V26.6217C77.587 27.5715 77.3894 28.5258 76.9319 29.3627L79.2973 29.3707Z" fill="#C9C9CF"/>
<path d="M82.6934 31.9359C82.672 31.9153 82.6552 31.8904 82.6442 31.8629C82.6331 31.8353 82.6281 31.8057 82.6295 31.776V25.2952C82.6285 25.2643 82.6336 25.2336 82.6446 25.2048C82.6556 25.176 82.6722 25.1497 82.6934 25.1274C82.7402 25.088 82.8002 25.068 82.8613 25.0714H83.2688C83.2991 25.0688 83.3296 25.0725 83.3585 25.0821C83.3873 25.0917 83.4139 25.1071 83.4366 25.1274C83.474 25.1752 83.4938 25.2345 83.4926 25.2952V25.7187C83.6784 25.4736 83.9208 25.2772 84.1992 25.1464C84.4776 25.0155 84.7835 24.9542 85.0908 24.9675C85.3815 24.946 85.6731 24.9943 85.9414 25.1083C86.2097 25.2222 86.4468 25.3986 86.6331 25.6228C86.9869 26.1012 87.1749 26.682 87.1685 27.277C87.1749 27.3861 87.1749 27.4955 87.1685 27.6046C87.1746 27.7164 87.1746 27.8285 87.1685 27.9403C87.1726 28.5324 86.9847 29.11 86.6331 29.5864C86.4306 29.8012 86.1849 29.9706 85.9123 30.0837C85.6396 30.1969 85.3462 30.2511 85.0511 30.2428C84.7561 30.2345 84.4661 30.1638 84.2003 30.0356C83.9344 29.9073 83.6987 29.7243 83.5086 29.4985V31.776C83.5099 31.8057 83.5049 31.8353 83.4939 31.8629C83.4829 31.8904 83.4661 31.9153 83.4446 31.9359C83.4241 31.9573 83.3992 31.9741 83.3717 31.9851C83.3441 31.9962 83.3144 32.0012 83.2848 31.9998H82.8533C82.7939 31.999 82.737 31.9762 82.6934 31.9359ZM85.9379 29.043C86.1698 28.7013 86.2924 28.2973 86.2895 27.8843C86.2954 27.7912 86.2954 27.6978 86.2895 27.6046C86.2895 26.358 85.826 25.7347 84.899 25.7347C84.704 25.7221 84.5088 25.7561 84.3295 25.8339C84.1503 25.9117 83.9921 26.0311 83.8682 26.1822C83.636 26.4916 83.5074 26.8663 83.5006 27.253C83.5006 27.3249 83.5006 27.4528 83.5006 27.6366C83.5006 27.8204 83.5006 27.9403 83.5006 28.0122C83.5084 28.3893 83.6435 28.7526 83.8841 29.043C84.0077 29.1899 84.1637 29.3061 84.3398 29.3823C84.5159 29.4586 84.7074 29.4929 84.899 29.4826C85.0916 29.5056 85.2869 29.4813 85.468 29.4116C85.6491 29.342 85.8104 29.2292 85.9379 29.083V29.043Z" fill="#C9C9CF"/>
<path d="M89.6698 30.042C89.4156 29.923 89.1956 29.7415 89.0305 29.5145C88.8719 29.2964 88.7879 29.033 88.7908 28.7634C88.7888 28.5583 88.8357 28.3558 88.9274 28.1724C89.0191 27.989 89.153 27.83 89.3182 27.7085C89.7424 27.4113 90.234 27.2246 90.7486 27.1651L92.219 26.9574V26.6857C92.219 26.0144 91.8274 25.6788 91.0523 25.6788C90.7997 25.6685 90.5497 25.7324 90.333 25.8626C90.1646 25.9657 90.0266 26.1119 89.9335 26.2861C89.9192 26.3373 89.8883 26.3823 89.8456 26.414C89.807 26.4287 89.7643 26.4287 89.7257 26.414H89.3901C89.3618 26.4142 89.3337 26.4087 89.3076 26.3977C89.2815 26.3867 89.2579 26.3705 89.2383 26.35C89.217 26.3311 89.2002 26.3076 89.1892 26.2813C89.1781 26.2551 89.173 26.2267 89.1743 26.1982C89.1858 26.0072 89.2586 25.825 89.3821 25.6788C89.5484 25.4516 89.7716 25.2725 90.0294 25.1593C90.3673 25.0037 90.7363 24.9271 91.1082 24.9356C91.3893 24.9072 91.6731 24.9381 91.9415 25.0262C92.2099 25.1143 92.4569 25.2576 92.6665 25.447C92.8263 25.6167 92.9509 25.8163 93.0332 26.0344C93.1155 26.2525 93.1538 26.4847 93.146 26.7176V29.9141C93.1472 29.9762 93.1243 30.0364 93.082 30.0819C93.0385 30.1223 92.9816 30.145 92.9222 30.1458H92.4907C92.4611 30.1463 92.4318 30.1408 92.4044 30.1299C92.3769 30.1189 92.3519 30.1026 92.3308 30.0819C92.2915 30.0352 92.2715 29.9751 92.2749 29.9141V29.4906C92.1155 29.7186 91.9011 29.9028 91.6516 30.026C91.3227 30.1824 90.9607 30.2564 90.5968 30.2417C90.276 30.2524 89.9576 30.1838 89.6698 30.042ZM91.7875 29.083C91.9337 28.9165 92.0456 28.7228 92.1169 28.513C92.1882 28.3033 92.2175 28.0815 92.203 27.8604V27.5887L91.0602 27.7565C90.6856 27.7888 90.3227 27.9034 89.9974 28.0921C89.8902 28.1483 89.7997 28.2319 89.7352 28.3344C89.6706 28.4368 89.6343 28.5545 89.6298 28.6755C89.6262 28.7977 89.6546 28.9187 89.712 29.0266C89.7695 29.1345 89.8541 29.2256 89.9575 29.2908C90.2431 29.4615 90.5769 29.5336 90.9076 29.496C91.2382 29.4585 91.5473 29.3134 91.7875 29.083Z" fill="#C9C9CF"/>
<path d="M95.3116 30.0819C95.2694 30.0363 95.2464 29.9762 95.2477 29.9141V25.2951C95.248 25.2333 95.2707 25.1737 95.3116 25.1273C95.3559 25.0892 95.413 25.0692 95.4714 25.0714H97.4932C97.9706 25.0405 98.4449 25.1668 98.8437 25.431C98.9975 25.5454 99.1214 25.6952 99.2048 25.8677C99.2883 26.0402 99.3289 26.2303 99.3232 26.4219C99.3356 26.6513 99.28 26.8793 99.1634 27.0772C99.04 27.252 98.8715 27.3901 98.6759 27.4768C98.9075 27.5755 99.1009 27.7465 99.2273 27.9642C99.3601 28.1892 99.4292 28.4461 99.4271 28.7074C99.4389 28.9109 99.4007 29.1142 99.3157 29.2995C99.2307 29.4848 99.1016 29.6464 98.9396 29.7702C98.5349 30.0424 98.052 30.1743 97.5651 30.1458H95.4714C95.4121 30.145 95.3551 30.1222 95.3116 30.0819ZM97.4293 27.237C97.6992 27.251 97.9662 27.1751 98.1884 27.0212C98.2804 26.9554 98.3543 26.8675 98.4032 26.7655C98.4521 26.6635 98.4744 26.5508 98.4681 26.4379C98.4681 25.9824 98.1245 25.7586 97.4293 25.7586H96.1107V27.237H97.4293ZM97.4852 29.4506C97.7649 29.4696 98.0438 29.4027 98.2843 29.2588C98.3776 29.1994 98.4534 29.1163 98.5039 29.018C98.5545 28.9198 98.578 28.8098 98.572 28.6994C98.581 28.5889 98.5615 28.478 98.5153 28.3773C98.4691 28.2765 98.3978 28.1893 98.3083 28.124C98.0672 27.9819 97.7881 27.9177 97.5092 27.9402H96.1347V29.4506H97.4852Z" fill="#C9C9CF"/>
<path d="M101.84 29.6344C101.445 29.1956 101.226 28.6265 101.225 28.0361V27.1971C101.229 26.6057 101.451 26.0364 101.848 25.5988C102.307 25.2066 102.891 24.991 103.495 24.991C104.098 24.991 104.682 25.2066 105.141 25.5988C105.541 26.0353 105.766 26.6046 105.772 27.1971C105.772 27.3329 105.772 27.4768 105.772 27.6126C105.772 27.7485 105.772 27.8923 105.772 28.0361C105.775 28.6287 105.552 29.2001 105.149 29.6344C104.931 29.8463 104.671 30.01 104.386 30.1146C104.101 30.2193 103.797 30.2626 103.495 30.2417C103.192 30.2611 102.888 30.2171 102.603 30.1125C102.319 30.0079 102.059 29.8451 101.84 29.6344ZM104.485 29.115C104.75 28.7965 104.892 28.394 104.885 27.9802C104.885 27.9083 104.885 27.7884 104.885 27.6046C104.885 27.4208 104.885 27.3009 104.885 27.237C104.893 26.8206 104.751 26.4152 104.485 26.0943C104.217 25.842 103.863 25.7015 103.495 25.7015C103.126 25.7015 102.772 25.842 102.504 26.0943C102.24 26.4159 102.101 26.8215 102.112 27.237V27.9802C102.103 28.3931 102.242 28.7957 102.504 29.115C102.772 29.3672 103.126 29.5077 103.495 29.5077C103.863 29.5077 104.217 29.3672 104.485 29.115Z" fill="#C9C9CF"/>
<path d="M108.154 29.6344C107.759 29.1955 107.54 28.6265 107.538 28.0361V27.197C107.537 26.6032 107.763 26.0314 108.17 25.5988C108.627 25.2071 109.209 24.9919 109.812 24.9919C110.414 24.9919 110.996 25.2071 111.454 25.5988C111.861 26.0314 112.087 26.6032 112.085 27.197C112.093 27.3354 112.093 27.4742 112.085 27.6126C112.093 27.7537 112.093 27.8951 112.085 28.0361C112.088 28.6287 111.865 29.2001 111.462 29.6344C111.244 29.8463 110.985 30.0099 110.7 30.1146C110.415 30.2193 110.111 30.2626 109.808 30.2417C109.505 30.2611 109.201 30.217 108.917 30.1125C108.632 30.0079 108.372 29.8451 108.154 29.6344ZM110.799 29.1149C111.066 28.7983 111.208 28.3946 111.198 27.9802C111.198 27.9083 111.198 27.7884 111.198 27.6046C111.198 27.4208 111.198 27.3009 111.198 27.237C111.21 26.8199 111.068 26.413 110.799 26.0943C110.672 25.9607 110.518 25.8565 110.346 25.7888C110.175 25.7212 109.991 25.6918 109.808 25.7027C109.624 25.6934 109.441 25.7235 109.27 25.7911C109.099 25.8586 108.944 25.962 108.817 26.0943C108.557 26.418 108.419 26.8221 108.425 27.237V27.9802C108.42 28.3924 108.558 28.7937 108.817 29.1149C108.944 29.2472 109.099 29.3506 109.27 29.4181C109.441 29.4857 109.624 29.5158 109.808 29.5065C109.994 29.5134 110.179 29.479 110.351 29.4058C110.522 29.3325 110.675 29.2223 110.799 29.083V29.1149Z" fill="#C9C9CF"/>
<path d="M113.683 30.0819C113.665 30.0631 113.65 30.0406 113.64 30.0158C113.631 29.9911 113.626 29.9646 113.627 29.938C113.632 29.8721 113.654 29.8086 113.691 29.7542L115.393 27.5487L113.795 25.447C113.75 25.3986 113.722 25.3369 113.715 25.2712C113.716 25.2441 113.721 25.2174 113.732 25.1927C113.743 25.168 113.759 25.1457 113.779 25.1273C113.798 25.1086 113.821 25.0939 113.845 25.0843C113.87 25.0746 113.897 25.0702 113.923 25.0714H114.387C114.439 25.0719 114.49 25.0862 114.535 25.1128C114.58 25.1395 114.617 25.1776 114.642 25.2232L115.961 26.9333L117.279 25.2232C117.312 25.1795 117.35 25.1394 117.391 25.1034C117.438 25.0886 117.488 25.0886 117.535 25.1034H117.983C118.033 25.1034 118.082 25.1236 118.118 25.1595C118.154 25.1955 118.174 25.2443 118.174 25.2951C118.173 25.3616 118.15 25.4258 118.11 25.479L116.512 27.5966L118.214 29.7862C118.252 29.8406 118.274 29.9041 118.278 29.97C118.279 29.9965 118.275 30.023 118.265 30.0478C118.256 30.0726 118.241 30.0951 118.222 30.1138C118.203 30.1343 118.179 30.1505 118.153 30.1615C118.127 30.1725 118.099 30.178 118.071 30.1778H117.599C117.547 30.1744 117.497 30.1589 117.453 30.1325C117.408 30.1061 117.371 30.0696 117.343 30.0259L115.945 28.2199L114.554 30.0259L114.442 30.1378C114.399 30.1639 114.349 30.1777 114.299 30.1778H113.843C113.811 30.1753 113.78 30.1654 113.752 30.1487C113.724 30.1321 113.701 30.1092 113.683 30.0819Z" fill="#C9C9CF"/>
<path d="M120.108 31.9359C120.088 31.9146 120.073 31.8894 120.063 31.8619C120.054 31.8344 120.05 31.8051 120.052 31.776V25.2952C120.05 25.2649 120.053 25.2343 120.063 25.2055C120.073 25.1766 120.088 25.1501 120.108 25.1274C120.155 25.088 120.215 25.068 120.276 25.0714H120.684C120.714 25.0688 120.745 25.0725 120.773 25.0821C120.802 25.0917 120.829 25.1071 120.851 25.1274C120.889 25.1752 120.909 25.2345 120.907 25.2952V25.7187C121.093 25.4736 121.336 25.2772 121.614 25.1464C121.892 25.0155 122.198 24.9542 122.506 24.9675C122.796 24.946 123.088 24.9943 123.356 25.1083C123.624 25.2222 123.862 25.3986 124.048 25.6228C124.405 26.1002 124.595 26.6811 124.591 27.277C124.591 27.3409 124.591 27.4528 124.591 27.6046C124.591 27.7565 124.591 27.8683 124.591 27.9403C124.593 28.5333 124.402 29.111 124.048 29.5864C123.862 29.8106 123.624 29.987 123.356 30.101C123.088 30.215 122.796 30.2632 122.506 30.2417C122.198 30.2647 121.89 30.2084 121.61 30.0783C121.33 29.9482 121.088 29.7486 120.907 29.4985V31.776C120.907 31.8354 120.884 31.8923 120.843 31.9359C120.798 31.9781 120.738 32.001 120.676 31.9998H120.244C120.193 31.9936 120.146 31.9712 120.108 31.9359ZM123.361 29.043C123.587 28.699 123.706 28.2959 123.704 27.8843C123.71 27.7912 123.71 27.6978 123.704 27.6046C123.704 26.358 123.241 25.7347 122.314 25.7347C122.119 25.7221 121.924 25.7561 121.744 25.8339C121.565 25.9117 121.407 26.0311 121.283 26.1822C121.05 26.4907 120.924 26.8665 120.923 27.253C120.917 27.3808 120.917 27.5088 120.923 27.6366C120.917 27.7617 120.917 27.8871 120.923 28.0122C120.929 28.4104 121.083 28.7923 121.355 29.083C121.478 29.2299 121.634 29.346 121.811 29.4223C121.987 29.4986 122.178 29.5329 122.37 29.5225C122.558 29.5316 122.745 29.4966 122.917 29.4203C123.089 29.344 123.241 29.2285 123.361 29.083V29.043Z" fill="#C9C9CF"/>
<path d="M127.093 30.0419C126.834 29.9266 126.611 29.7445 126.445 29.5145C126.287 29.2964 126.203 29.033 126.206 28.7633C126.204 28.5583 126.251 28.3557 126.342 28.1723C126.434 27.9889 126.568 27.83 126.733 27.7085C127.16 27.41 127.654 27.2232 128.171 27.1651L129.634 26.9573V26.6856C129.634 26.0143 129.242 25.6787 128.467 25.6787C128.215 25.6685 127.965 25.7323 127.748 25.8625C127.581 25.9679 127.444 26.1136 127.348 26.286C127.334 26.335 127.306 26.3791 127.268 26.4139C127.229 26.4262 127.188 26.4262 127.149 26.4139H126.765C126.737 26.4142 126.709 26.4086 126.682 26.3976C126.656 26.3866 126.633 26.3704 126.613 26.35C126.573 26.3098 126.55 26.2552 126.549 26.1981C126.564 26.008 126.637 25.8268 126.757 25.6787C126.928 25.4557 127.15 25.2775 127.404 25.1593C127.742 25.0036 128.111 24.9271 128.483 24.9355C128.77 24.9034 129.061 24.9324 129.337 25.0206C129.612 25.1087 129.866 25.254 130.081 25.447C130.398 25.7928 130.567 26.2487 130.553 26.7176V29.914C130.554 29.9762 130.531 30.0363 130.489 30.0819C130.468 30.1025 130.443 30.1188 130.415 30.1298C130.388 30.1408 130.359 30.1462 130.329 30.1458H129.898C129.869 30.1471 129.841 30.142 129.814 30.1309C129.788 30.1199 129.765 30.1031 129.746 30.0819C129.703 30.0363 129.681 29.9762 129.682 29.914V29.4905C129.522 29.7186 129.308 29.9027 129.058 30.0259C128.73 30.1823 128.368 30.2564 128.004 30.2417C127.688 30.2521 127.375 30.1834 127.093 30.0419ZM129.226 29.1069C129.519 28.7694 129.665 28.3297 129.634 27.8843V27.6126L128.491 27.7804C128.116 27.8128 127.754 27.9273 127.428 28.116C127.324 28.1774 127.237 28.265 127.177 28.3701C127.117 28.4752 127.085 28.5942 127.085 28.7154C127.085 28.8365 127.117 28.9555 127.177 29.0606C127.237 29.1657 127.324 29.2533 127.428 29.3147C127.666 29.468 127.945 29.5434 128.227 29.5305C128.606 29.5196 128.966 29.3587 129.226 29.083V29.1069Z" fill="#C9C9CF"/>
<path d="M132.726 30.0819C132.687 30.0351 132.667 29.9751 132.67 29.9141V25.2952C132.668 25.2342 132.688 25.1745 132.726 25.1273C132.773 25.088 132.833 25.068 132.894 25.0714H133.342C133.371 25.069 133.4 25.0727 133.428 25.0824C133.455 25.092 133.48 25.1073 133.502 25.1273C133.523 25.1494 133.54 25.1757 133.551 25.2046C133.562 25.2334 133.567 25.2643 133.566 25.2952V27.1731H136.259V25.2952C136.259 25.2333 136.282 25.1737 136.322 25.1273C136.369 25.088 136.429 25.068 136.49 25.0714H136.914C136.944 25.0675 136.975 25.0706 137.004 25.0804C137.033 25.0903 137.059 25.1067 137.081 25.1283C137.102 25.1499 137.119 25.1762 137.129 25.2051C137.138 25.234 137.142 25.2648 137.138 25.2952V29.8821C137.141 29.9431 137.121 30.0032 137.082 30.0499C137.035 30.0908 136.976 30.1135 136.914 30.1139H136.49C136.459 30.1163 136.428 30.1119 136.399 30.1011C136.37 30.0903 136.343 30.0733 136.321 30.0513C136.299 30.0293 136.282 30.0028 136.271 29.9736C136.261 29.9444 136.256 29.9132 136.259 29.8821V27.8923H133.566V29.8821C133.568 29.9124 133.564 29.9429 133.553 29.9715C133.543 30.0001 133.527 30.0263 133.506 30.0481C133.484 30.07 133.459 30.0872 133.431 30.0985C133.402 30.1098 133.372 30.1151 133.342 30.1139H132.918C132.886 30.1222 132.852 30.1237 132.819 30.1182C132.786 30.1127 132.754 30.1003 132.726 30.0819Z" fill="#C9C9CF"/>
<path d="M139.735 29.6185C139.314 29.1542 139.081 28.5506 139.079 27.9243V27.277C139.085 26.6562 139.318 26.0591 139.735 25.5989C140.177 25.183 140.765 24.9563 141.372 24.9667C141.98 24.9771 142.559 25.224 142.987 25.6548C143.404 26.18 143.614 26.8394 143.578 27.5088V27.6846C143.58 27.7143 143.575 27.7439 143.564 27.7715C143.553 27.7992 143.536 27.8243 143.515 27.8453C143.494 27.8663 143.469 27.8827 143.442 27.8936C143.414 27.9044 143.384 27.9095 143.355 27.9083H139.974V27.9962C139.987 28.3907 140.124 28.7712 140.366 29.083C140.48 29.2274 140.626 29.3432 140.792 29.4209C140.959 29.4986 141.141 29.5362 141.325 29.5305C141.585 29.5405 141.843 29.4767 142.068 29.3467C142.234 29.2465 142.383 29.1196 142.508 28.9712C142.542 28.9141 142.589 28.8651 142.644 28.8273C142.699 28.8157 142.756 28.8157 142.811 28.8273H143.235C143.29 28.8249 143.343 28.8419 143.387 28.8753C143.405 28.8912 143.421 28.9108 143.432 28.9327C143.443 28.9547 143.449 28.9786 143.451 29.0031C143.426 29.2016 143.332 29.3852 143.187 29.5225C142.979 29.7466 142.726 29.9237 142.444 30.042C142.094 30.1972 141.715 30.2736 141.333 30.2657C141.036 30.277 140.74 30.2251 140.464 30.1135C140.189 30.002 139.94 29.8332 139.735 29.6185ZM142.691 27.2211C142.714 26.8177 142.582 26.4208 142.324 26.1103C142.195 25.9744 142.041 25.8661 141.869 25.7921C141.697 25.7181 141.512 25.68 141.325 25.68C141.138 25.68 140.953 25.7181 140.781 25.7921C140.609 25.8661 140.455 25.9744 140.326 26.1103C140.076 26.4252 139.949 26.8196 139.966 27.2211H142.691Z" fill="#C9C9CF"/>
<path d="M145.576 30.0819C145.554 30.0605 145.536 30.0343 145.525 30.0053C145.514 29.9762 145.51 29.9451 145.512 29.9141V25.2952C145.511 25.2643 145.516 25.2335 145.527 25.2046C145.538 25.1757 145.555 25.1494 145.576 25.1274C145.598 25.1078 145.623 25.0927 145.65 25.0831C145.678 25.0735 145.707 25.0695 145.736 25.0714H146.168C146.226 25.0692 146.283 25.0892 146.327 25.1274C146.368 25.1737 146.391 25.2334 146.391 25.2952V27.1731H149.084V25.2952C149.083 25.2643 149.088 25.2335 149.099 25.2046C149.11 25.1757 149.127 25.1494 149.148 25.1274C149.17 25.1078 149.195 25.0927 149.223 25.0831C149.25 25.0735 149.279 25.0695 149.308 25.0714H149.732C149.762 25.0689 149.792 25.0725 149.821 25.0821C149.85 25.0917 149.877 25.1071 149.899 25.1274C149.921 25.1497 149.937 25.176 149.948 25.2048C149.959 25.2337 149.964 25.2644 149.963 25.2952V29.8821C149.966 29.9132 149.961 29.9444 149.951 29.9736C149.94 30.0028 149.923 30.0293 149.901 30.0513C149.879 30.0734 149.852 30.0903 149.823 30.1011C149.794 30.1119 149.763 30.1163 149.732 30.1139H149.324C149.295 30.1143 149.265 30.1089 149.238 30.0979C149.21 30.0869 149.185 30.0706 149.164 30.0499C149.142 30.0285 149.124 30.0023 149.113 29.9733C149.102 29.9443 149.098 29.9131 149.1 29.8821V27.8923H146.407V29.8821C146.409 29.9442 146.386 30.0044 146.343 30.0499C146.3 30.0903 146.243 30.1131 146.184 30.1139H145.752C145.722 30.1209 145.691 30.1217 145.661 30.1162C145.631 30.1107 145.602 30.099 145.576 30.0819Z" fill="#C9C9CF"/>
<path d="M156.588 25.1273C156.609 25.1434 156.625 25.1641 156.636 25.1877C156.647 25.2113 156.653 25.2371 156.652 25.2632V29.8821C156.655 29.913 156.65 29.9442 156.639 29.9732C156.628 30.0023 156.611 30.0285 156.588 30.0499C156.567 30.0706 156.542 30.0868 156.515 30.0978C156.487 30.1088 156.458 30.1142 156.428 30.1138H156.005C155.943 30.1151 155.883 30.0921 155.837 30.0499C155.798 30.0031 155.778 29.9431 155.781 29.8821V26.318L153.048 29.962C153.02 30.0057 152.983 30.0422 152.938 30.0686C152.894 30.095 152.844 30.1105 152.792 30.1138H152.369C152.317 30.111 152.268 30.088 152.233 30.0499C152.212 30.0321 152.196 30.01 152.185 29.9852C152.174 29.9603 152.168 29.9333 152.169 29.906V25.2632C152.167 25.2323 152.172 25.2014 152.183 25.1726C152.194 25.1437 152.211 25.1174 152.233 25.0953C152.254 25.0757 152.28 25.0606 152.307 25.051C152.335 25.0414 152.364 25.0375 152.393 25.0394H152.816C152.877 25.036 152.937 25.056 152.984 25.0953C153.025 25.1417 153.048 25.2013 153.048 25.2632V28.8352L155.781 25.1832C155.807 25.1402 155.843 25.1045 155.886 25.0793C155.93 25.0542 155.979 25.0404 156.029 25.0394H156.444C156.473 25.0437 156.5 25.0536 156.525 25.0687C156.55 25.0838 156.571 25.1038 156.588 25.1273Z" fill="#C9C9CF"/>
<path d="M162.573 25.1273C162.595 25.1494 162.612 25.1757 162.623 25.2045C162.634 25.2334 162.639 25.2643 162.637 25.2951V29.8821C162.64 29.9131 162.636 29.9442 162.624 29.9733C162.613 30.0023 162.596 30.0285 162.573 30.0499C162.552 30.0706 162.527 30.0869 162.5 30.0978C162.472 30.1088 162.443 30.1143 162.414 30.1138H161.974C161.945 30.1143 161.915 30.1088 161.888 30.0978C161.86 30.0869 161.835 30.0706 161.814 30.0499C161.772 30.0044 161.749 29.9442 161.75 29.8821V28.2839H160.695L159.577 29.962C159.545 30.0026 159.508 30.0377 159.465 30.0659C159.423 30.0961 159.373 30.1128 159.321 30.1138H158.913C158.862 30.1086 158.814 30.0859 158.778 30.0495C158.742 30.0131 158.719 29.9653 158.714 29.9141C158.715 29.8461 158.74 29.7807 158.786 29.7303L159.88 28.132C159.559 28.0364 159.278 27.8369 159.081 27.5647C158.904 27.2859 158.815 26.96 158.826 26.6297C158.808 26.4053 158.842 26.1798 158.925 25.9705C159.008 25.7613 159.138 25.574 159.305 25.423C159.736 25.1353 160.251 25.0002 160.767 25.0394H162.414C162.445 25.0415 162.476 25.0505 162.503 25.0657C162.531 25.0808 162.555 25.1019 162.573 25.1273ZM161.774 25.7826H160.743C160.463 25.7616 160.182 25.8316 159.944 25.9824C159.851 26.0674 159.779 26.1732 159.735 26.2913C159.69 26.4094 159.675 26.5363 159.689 26.6616C159.679 26.9156 159.771 27.1627 159.944 27.3489C160.044 27.4403 160.161 27.5103 160.289 27.5543C160.417 27.5983 160.553 27.6154 160.687 27.6046H161.798L161.774 25.7826Z" fill="#C9C9CF"/>
<path d="M0.200353 18.4946C0.133713 18.431 0.0814103 18.3539 0.0469579 18.2685C0.0125055 18.183 -0.00330265 18.0912 0.000573433 17.9992V1.74505C0.000573433 1.56491 0.0721154 1.39214 0.1995 1.26476C0.326884 1.13738 0.499657 1.06581 0.679806 1.06581H5.61039C5.79053 1.06581 5.96331 1.13738 6.09069 1.26476C6.21808 1.39214 6.28964 1.56491 6.28964 1.74505V7.02724H10.3651V1.74505C10.3655 1.65523 10.3841 1.56642 10.4198 1.484C10.4556 1.40158 10.5076 1.32728 10.5729 1.26559C10.6332 1.2012 10.7063 1.15015 10.7875 1.11574C10.8687 1.08133 10.9562 1.06433 11.0444 1.06581H15.983C16.0723 1.06467 16.1609 1.0818 16.2433 1.11616C16.3258 1.15051 16.4003 1.20137 16.4624 1.26559C16.5892 1.39312 16.6609 1.56525 16.6622 1.74505V17.9992C16.6609 18.179 16.5892 18.3511 16.4624 18.4786C16.4003 18.5428 16.3258 18.5937 16.2433 18.6281C16.1609 18.6624 16.0723 18.6795 15.983 18.6784H11.0764C10.9882 18.6799 10.9007 18.6629 10.8195 18.6285C10.7383 18.5941 10.6652 18.543 10.6049 18.4786C10.5396 18.4169 10.4875 18.3426 10.4518 18.2602C10.4161 18.1778 10.3975 18.089 10.3971 17.9992V12.5651H6.28164V17.9992C6.28164 18.1793 6.21008 18.3521 6.08269 18.4795C5.95531 18.6068 5.78254 18.6784 5.60239 18.6784H0.687805C0.507779 18.6818 0.333319 18.616 0.200353 18.4946Z" fill="#C9C9CF"/>
<path d="M18.7559 18.5186C18.7037 18.4679 18.6626 18.407 18.6351 18.3396C18.6076 18.2722 18.5943 18.1998 18.5961 18.1271C18.5873 18.0688 18.5873 18.0095 18.5961 17.9513L24.19 1.89694C24.2574 1.67087 24.3877 1.46858 24.5656 1.31359C24.778 1.13766 25.0494 1.04911 25.3247 1.06586H30.7827C31.0557 1.04872 31.3247 1.13745 31.5339 1.31359C31.714 1.46812 31.847 1.6703 31.9175 1.89694L37.5113 17.9513C37.5202 18.0095 37.5202 18.0688 37.5113 18.1271C37.5124 18.1998 37.4988 18.272 37.4715 18.3393C37.4442 18.4067 37.4036 18.4679 37.3522 18.5194C37.3008 18.5708 37.2396 18.6114 37.1722 18.6387C37.1048 18.666 37.0326 18.6795 36.9599 18.6785H32.301C32.0909 18.701 31.8793 18.6516 31.7008 18.5384C31.5223 18.4252 31.3874 18.2549 31.3181 18.0551L30.7188 16.393H25.3087L24.7014 18.0551C24.6321 18.2549 24.4973 18.4252 24.3188 18.5384C24.1403 18.6516 23.9287 18.701 23.7185 18.6785H19.1475C19.0011 18.6785 18.8605 18.6211 18.7559 18.5186ZM26.6673 11.4864H29.5121L28.0817 6.80354L26.6673 11.4864Z" fill="#C9C9CF"/>
<path d="M39.7249 18.4786C39.6606 18.4165 39.6098 18.342 39.5754 18.2595C39.5411 18.1771 39.5239 18.0885 39.5251 17.9992V1.74506C39.5251 1.56491 39.5966 1.39215 39.724 1.26477C39.8514 1.13739 40.0242 1.06582 40.2043 1.06582H48.5551C50.9365 1.06582 52.6946 1.50001 53.8293 2.36839C54.412 2.84962 54.8707 3.46365 55.1669 4.15892C55.4631 4.85419 55.5881 5.61039 55.5314 6.36399C55.5355 7.05743 55.3139 7.73337 54.9001 8.28986C54.5384 8.79738 54.0656 9.21557 53.5176 9.51251C54.2145 9.80235 54.8058 10.2988 55.2118 10.9349C55.6662 11.5865 55.9089 12.3622 55.907 13.1565C55.9632 13.9465 55.8275 14.7384 55.5117 15.4647C55.1958 16.191 54.7091 16.8302 54.093 17.3279C52.889 18.2389 51.1283 18.6944 48.8108 18.6944H40.2043C40.1138 18.6935 40.0245 18.6738 39.942 18.6367C39.8595 18.5996 39.7855 18.5458 39.7249 18.4786ZM47.9318 7.68253C48.0823 7.69664 48.234 7.67339 48.3734 7.61484C48.5128 7.5563 48.6356 7.46426 48.7309 7.3469C48.9022 7.11568 48.9947 6.83554 48.9947 6.54778C48.9947 6.26003 48.9022 5.97989 48.7309 5.74866C48.6397 5.62524 48.5183 5.52734 48.3784 5.46437C48.2384 5.40139 48.0847 5.37546 47.9318 5.38906H45.8141V7.68253H47.9318ZM48.1556 14.3552C48.3208 14.3653 48.4861 14.3357 48.6376 14.269C48.7891 14.2023 48.9225 14.1003 49.0266 13.9716C49.2165 13.7274 49.318 13.4259 49.3143 13.1165C49.3166 12.8019 49.2028 12.4975 48.9947 12.2615C48.893 12.1387 48.7644 12.041 48.6189 11.9758C48.4734 11.9107 48.3149 11.8799 48.1556 11.8859H45.8141V14.3552H48.1556Z" fill="#C9C9CF"/>
<path d="M58.744 18.4786C58.6797 18.4166 58.6289 18.342 58.5945 18.2596C58.5602 18.1771 58.543 18.0885 58.5442 17.9992V1.74508C58.5442 1.56493 58.6157 1.39217 58.7431 1.26478C58.8705 1.1374 59.0433 1.06583 59.2234 1.06583H64.154C64.3342 1.06583 64.5069 1.1374 64.6343 1.26478C64.7617 1.39217 64.8333 1.56493 64.8333 1.74508V9.36869L70.0915 1.6412C70.1953 1.46113 70.346 1.31255 70.5275 1.21124C70.709 1.10994 70.9146 1.05969 71.1223 1.06583H75.4775C75.6577 1.06583 75.8305 1.1374 75.9578 1.26478C76.0852 1.39217 76.1568 1.56493 76.1568 1.74508V17.9992C76.1568 18.1793 76.0852 18.3521 75.9578 18.4795C75.8305 18.6069 75.6577 18.6784 75.4775 18.6784H70.547C70.3668 18.6784 70.1941 18.6069 70.0667 18.4795C69.9393 18.3521 69.8677 18.1793 69.8677 17.9992V10.927L64.6095 18.119C64.5056 18.2878 64.3666 18.4322 64.202 18.5426C64.0142 18.6548 63.797 18.7077 63.5787 18.6944H59.2234C59.133 18.6935 59.0436 18.6739 58.9611 18.6367C58.8786 18.5996 58.8047 18.5458 58.744 18.4786Z" fill="#C9C9CF"/>
<path d="M79.6728 18.4787C79.546 18.3512 79.4743 18.179 79.473 17.9992V1.74512C79.4743 1.56531 79.546 1.39319 79.6728 1.26565C79.7349 1.20143 79.8094 1.15057 79.8919 1.11622C79.9744 1.08186 80.063 1.06473 80.1523 1.06587H91.9792C92.1594 1.06587 92.3322 1.13744 92.4595 1.26482C92.5869 1.39221 92.6585 1.56497 92.6585 1.74512V5.54094C92.6585 5.72108 92.5869 5.89386 92.4595 6.02124C92.3322 6.14863 92.1594 6.22019 91.9792 6.22019H85.7701V17.9992C85.7697 18.089 85.7511 18.1779 85.7154 18.2603C85.6797 18.3427 85.6276 18.417 85.5623 18.4787C85.5008 18.5437 85.4264 18.5951 85.3438 18.6295C85.2612 18.6639 85.1723 18.6806 85.0828 18.6785H80.1523C80.063 18.6796 79.9744 18.6625 79.8919 18.6281C79.8094 18.5938 79.7349 18.5429 79.6728 18.4787Z" fill="#C9C9CF"/>
<path d="M91.3001 18.5186C91.1976 18.4141 91.1402 18.2735 91.1403 18.1271C91.1314 18.0688 91.1314 18.0095 91.1403 17.9513L96.7341 1.89694C96.8079 1.6719 96.9403 1.47056 97.1177 1.31359C97.3269 1.13745 97.5959 1.04872 97.8688 1.06586H103.335C103.608 1.05036 103.876 1.13889 104.086 1.31359C104.264 1.46858 104.394 1.67087 104.462 1.89694L110.055 17.9513C110.068 18.0092 110.068 18.0692 110.055 18.1271C110.056 18.2003 110.041 18.2729 110.012 18.3403C109.983 18.4076 109.941 18.4683 109.888 18.5186C109.836 18.5701 109.775 18.6108 109.708 18.6382C109.641 18.6657 109.569 18.6793 109.496 18.6785H104.845C104.635 18.701 104.423 18.6516 104.245 18.5384C104.066 18.4252 103.931 18.2549 103.862 18.0551L103.255 16.393H97.8449L97.2455 18.0551C97.1763 18.2549 97.0414 18.4252 96.8629 18.5384C96.6844 18.6516 96.4728 18.701 96.2626 18.6785H91.6037C91.4883 18.6583 91.3821 18.6024 91.3001 18.5186ZM99.2194 11.4864H102.064L100.626 6.80354L99.2194 11.4864Z" fill="#C9C9CF"/>
<path d="M114.163 18.4786C114.099 18.4165 114.048 18.342 114.013 18.2595C113.979 18.1771 113.962 18.0885 113.963 17.9992V6.47585H109.784C109.604 6.47455 109.432 6.40283 109.304 6.27607C109.24 6.21399 109.189 6.13942 109.155 6.05697C109.12 5.97451 109.103 5.88591 109.104 5.7966V1.74505C109.104 1.56491 109.176 1.39214 109.303 1.26476C109.431 1.13738 109.604 1.06581 109.784 1.06581H124.535C124.624 1.06433 124.711 1.08133 124.792 1.11574C124.874 1.15015 124.947 1.2012 125.007 1.26559C125.071 1.32767 125.122 1.40223 125.156 1.48468C125.191 1.56714 125.208 1.65574 125.207 1.74505V5.7966C125.208 5.88591 125.191 5.97451 125.156 6.05697C125.122 6.13942 125.071 6.21399 125.007 6.27607C124.946 6.33896 124.872 6.38899 124.791 6.42329C124.71 6.45758 124.623 6.47546 124.535 6.47585H120.356V17.9992C120.355 18.179 120.283 18.3511 120.156 18.4786C120.094 18.5428 120.02 18.5937 119.937 18.6281C119.855 18.6624 119.766 18.6795 119.677 18.6784H114.642C114.553 18.6795 114.464 18.6624 114.382 18.6281C114.3 18.5937 114.225 18.5428 114.163 18.4786Z" fill="#C9C9CF"/>
<path d="M146.927 18.4787C146.862 18.4166 146.812 18.342 146.777 18.2596C146.743 18.1771 146.726 18.0885 146.727 17.9992V1.74509C146.727 1.56494 146.798 1.39218 146.926 1.26479C147.053 1.13741 147.226 1.06584 147.406 1.06584H155.03C157.016 0.945441 158.986 1.49407 160.624 2.62413C161.306 3.17225 161.846 3.87684 162.198 4.67814C162.55 5.47943 162.703 6.35379 162.645 7.22705C162.708 8.08386 162.557 8.9428 162.205 9.72669C161.854 10.5106 161.313 11.1949 160.632 11.7181C158.973 12.7961 157.012 13.3143 155.038 13.1965H153.32V17.9912C153.318 18.171 153.247 18.3431 153.12 18.4707C153.058 18.5349 152.983 18.5857 152.901 18.6201C152.818 18.6544 152.73 18.6716 152.64 18.6705H147.454C147.357 18.6795 147.26 18.667 147.169 18.6339C147.078 18.6007 146.995 18.5477 146.927 18.4787ZM154.918 8.53761C155.218 8.53587 155.506 8.41519 155.717 8.20198C155.843 8.06492 155.939 7.9033 156 7.72728C156.06 7.55126 156.084 7.36463 156.069 7.17911C156.078 6.82423 155.983 6.47439 155.797 6.17222C155.7 6.02938 155.567 5.9149 155.411 5.84048C155.255 5.76606 155.082 5.73439 154.91 5.74869H153.152V8.53761H154.918Z" fill="#C9C9CF"/>
<path d="M141.884 2.56018C140.655 1.33667 139.091 0.504123 137.39 0.167334C135.689 -0.169455 133.926 0.00455983 132.323 0.667491C130.72 1.33042 129.35 2.45264 128.383 3.89288C127.417 5.33312 126.899 7.02702 126.893 8.76136C126.893 15.5858 135.683 21.4434 135.683 21.4434C135.683 21.4434 144.473 15.5858 144.473 8.76136C144.466 6.43297 143.535 4.20275 141.884 2.56018ZM135.667 11.6861C135.089 11.6845 134.524 11.5117 134.044 11.1893C133.565 10.867 133.191 10.4097 132.971 9.87509C132.751 9.34052 132.694 8.7527 132.808 8.18587C132.921 7.61905 133.201 7.09865 133.61 6.69041C134.019 6.28217 134.54 6.00441 135.108 5.89221C135.675 5.78 136.262 5.83839 136.796 6.05999C137.33 6.28159 137.787 6.65647 138.108 7.13727C138.429 7.61807 138.6 8.18323 138.6 8.76136C138.6 9.14612 138.524 9.52709 138.377 9.88246C138.229 10.2378 138.013 10.5606 137.74 10.8323C137.468 11.104 137.145 11.3193 136.789 11.4658C136.433 11.6123 136.052 11.6872 135.667 11.6861Z" fill="#4DB358"/>
</svg>
